<svg xmlns="http://www.w3.org/2000/svg" width="40" height="40" viewBox="0 0 40 40" fill="none">
<mask id="mask0_210_1503" style="mask-type:alpha" maskUnits="userSpaceOnUse" x="0" y="0" width="40" height="40">
<rect width="40" height="40" fill="#D9D9D9"/>
</mask>
<g mask="url(#mask0_210_1503)">
<path d="M13.333 20V23.3333C13.333 25.1666 13.9858 26.7361 15.2913 28.0416C16.5969 29.3472 18.1663 30 19.9997 30C21.833 30 23.4025 29.3472 24.708 28.0416C26.0136 26.7361 26.6663 25.1666 26.6663 23.3333V20H13.333ZM19.9997 27.5C18.833 27.5 17.8469 27.0972 17.0413 26.2916C16.2358 25.4861 15.833 24.5 15.833 23.3333V22.5H24.1663V23.3333C24.1663 24.5 23.7636 25.4861 22.958 26.2916C22.1525 27.0972 21.1663 27.5 19.9997 27.5ZM14.1663 11.6666C13.1108 11.6666 12.1733 12.0486 11.3538 12.8125C10.5344 13.5764 9.95801 14.625 9.62468 15.9583L12.0413 16.5416C12.208 15.8194 12.4858 15.243 12.8747 14.8125C13.2636 14.3819 13.6941 14.1666 14.1663 14.1666C14.6386 14.1666 15.0691 14.3819 15.458 14.8125C15.8469 15.243 16.1247 15.8194 16.2913 16.5416L18.708 15.9583C18.3747 14.625 17.7983 13.5764 16.9788 12.8125C16.1594 12.0486 15.2219 11.6666 14.1663 11.6666ZM25.833 11.6666C24.7775 11.6666 23.84 12.0486 23.0205 12.8125C22.2011 13.5764 21.6247 14.625 21.2913 15.9583L23.708 16.5416C23.8747 15.8194 24.1525 15.243 24.5413 14.8125C24.9302 14.3819 25.3608 14.1666 25.833 14.1666C26.3052 14.1666 26.7358 14.3819 27.1247 14.8125C27.5136 15.243 27.7913 15.8194 27.958 16.5416L30.3747 15.9583C30.0413 14.625 29.465 13.5764 28.6455 12.8125C27.8261 12.0486 26.8886 11.6666 25.833 11.6666ZM19.9997 36.6666C17.6941 36.6666 15.5275 36.2291 13.4997 35.3541C11.4719 34.4791 9.70801 33.2916 8.20801 31.7916C6.70801 30.2916 5.52051 28.5278 4.64551 26.5C3.77051 24.4722 3.33301 22.3055 3.33301 20C3.33301 17.6944 3.77051 15.5278 4.64551 13.5C5.52051 11.4722 6.70801 9.70831 8.20801 8.20831C9.70801 6.70831 11.4719 5.52081 13.4997 4.64581C15.5275 3.77081 17.6941 3.33331 19.9997 3.33331C22.3052 3.33331 24.4719 3.77081 26.4997 4.64581C28.5275 5.52081 30.2913 6.70831 31.7913 8.20831C33.2913 9.70831 34.4788 11.4722 35.3538 13.5C36.2288 15.5278 36.6663 17.6944 36.6663 20C36.6663 22.3055 36.2288 24.4722 35.3538 26.5C34.4788 28.5278 33.2913 30.2916 31.7913 31.7916C30.2913 33.2916 28.5275 34.4791 26.4997 35.3541C24.4719 36.2291 22.3052 36.6666 19.9997 36.6666ZM19.9997 33.8889C23.877 33.8889 27.1611 32.5434 29.8521 29.8524C32.5431 27.1614 33.8886 23.8773 33.8886 20C33.8886 16.1227 32.5431 12.8385 29.8521 10.1475C27.1611 7.45655 23.877 6.11106 19.9997 6.11106C16.1224 6.11106 12.8382 7.45655 10.1472 10.1475C7.45624 12.8385 6.11076 16.1227 6.11076 20C6.11076 23.8773 7.45624 27.1614 10.1472 29.8524C12.8382 32.5434 16.1224 33.8889 19.9997 33.8889Z" fill="#7163E8"/>
</g>
</svg>