<svg width="16" height="16" viewBox="0 0 16 16" fill="none" xmlns="http://www.w3.org/2000/svg">
<g id="gg:info">
<g id="Group">
<path id="Vector" d="M7.3335 7.32018C7.3335 7.14337 7.40373 6.9738 7.52876 6.84877C7.65378 6.72375 7.82335 6.65351 8.00016 6.65351C8.17697 6.65351 8.34654 6.72375 8.47157 6.84877C8.59659 6.9738 8.66683 7.14337 8.66683 7.32018V11.3202C8.66683 11.497 8.59659 11.6666 8.47157 11.7916C8.34654 11.9166 8.17697 11.9868 8.00016 11.9868C7.82335 11.9868 7.65378 11.9166 7.52876 11.7916C7.40373 11.6666 7.3335 11.497 7.3335 11.3202V7.32018ZM8.00016 4.03418C7.82335 4.03418 7.65378 4.10442 7.52876 4.22944C7.40373 4.35447 7.3335 4.52404 7.3335 4.70085C7.3335 4.87766 7.40373 5.04723 7.52876 5.17225C7.65378 5.29727 7.82335 5.36751 8.00016 5.36751C8.17697 5.36751 8.34654 5.29727 8.47157 5.17225C8.59659 5.04723 8.66683 4.87766 8.66683 4.70085C8.66683 4.52404 8.59659 4.35447 8.47157 4.22944C8.34654 4.10442 8.17697 4.03418 8.00016 4.03418Z" fill="#A9A9A9"/>
<path id="Vector_2" fill-rule="evenodd" clip-rule="evenodd" d="M8.00016 1.3335C4.31816 1.3335 1.3335 4.31816 1.3335 8.00016C1.3335 11.6822 4.31816 14.6668 8.00016 14.6668C11.6822 14.6668 14.6668 11.6822 14.6668 8.00016C14.6668 4.31816 11.6822 1.3335 8.00016 1.3335ZM2.66683 8.00016C2.66683 9.41465 3.22873 10.7712 4.22893 11.7714C5.22912 12.7716 6.58567 13.3335 8.00016 13.3335C9.41465 13.3335 10.7712 12.7716 11.7714 11.7714C12.7716 10.7712 13.3335 9.41465 13.3335 8.00016C13.3335 6.58567 12.7716 5.22912 11.7714 4.22893C10.7712 3.22873 9.41465 2.66683 8.00016 2.66683C6.58567 2.66683 5.22912 3.22873 4.22893 4.22893C3.22873 5.22912 2.66683 6.58567 2.66683 8.00016Z" fill="#A9A9A9"/>
</g>
</g>
</svg>
