<svg xmlns="http://www.w3.org/2000/svg" width="40" height="40" viewBox="0 0 40 40" fill="none">
<mask id="mask0_210_1480" style="mask-type:alpha" maskUnits="userSpaceOnUse" x="0" y="0" width="40" height="40">
<rect width="40" height="40" fill="#D9D9D9"/>
</mask>
<g mask="url(#mask0_210_1480)">
<path d="M19.9997 22.5833C18.1293 22.5833 16.4326 23.1088 14.9094 24.1597C13.3862 25.2106 12.2682 26.6018 11.5552 28.3333H28.4441C27.7497 26.5833 26.6363 25.1875 25.1038 24.1458C23.5714 23.1041 21.87 22.5833 19.9997 22.5833ZM12.583 19.75L14.583 17.9166L16.4163 19.75L17.8608 18.1666L16.0274 16.3333L17.8608 14.4722L16.4163 12.8889L14.583 14.7222L12.583 12.8889L11.1386 14.4722L12.9719 16.3333L11.1386 18.1666L12.583 19.75ZM23.6108 19.75L25.4163 17.9166L27.4441 19.75L28.8886 18.1666L27.0552 16.3333L28.8886 14.4722L27.4441 12.8889L25.4163 14.7222L23.6108 12.8889L22.1663 14.4722L23.9719 16.3333L22.1663 18.1666L23.6108 19.75ZM19.9997 36.6666C17.6941 36.6666 15.5275 36.2291 13.4997 35.3541C11.4719 34.4791 9.70801 33.2916 8.20801 31.7916C6.70801 30.2916 5.52051 28.5278 4.64551 26.5C3.77051 24.4722 3.33301 22.3055 3.33301 20C3.33301 17.6944 3.77051 15.5278 4.64551 13.5C5.52051 11.4722 6.70801 9.70831 8.20801 8.20831C9.70801 6.70831 11.4719 5.52081 13.4997 4.64581C15.5275 3.77081 17.6941 3.33331 19.9997 3.33331C22.3052 3.33331 24.4719 3.77081 26.4997 4.64581C28.5275 5.52081 30.2913 6.70831 31.7913 8.20831C33.2913 9.70831 34.4788 11.4722 35.3538 13.5C36.2288 15.5278 36.6663 17.6944 36.6663 20C36.6663 22.3055 36.2288 24.4722 35.3538 26.5C34.4788 28.5278 33.2913 30.2916 31.7913 31.7916C30.2913 33.2916 28.5275 34.4791 26.4997 35.3541C24.4719 36.2291 22.3052 36.6666 19.9997 36.6666ZM19.9997 33.8889C23.87 33.8889 27.1525 32.5417 29.8469 29.8472C32.5414 27.1528 33.8886 23.8703 33.8886 20C33.8886 16.1296 32.5414 12.8472 29.8469 10.1527C27.1525 7.45829 23.87 6.11106 19.9997 6.11106C16.1293 6.11106 12.8469 7.45829 10.1524 10.1527C7.45798 12.8472 6.11076 16.1296 6.11076 20C6.11076 23.8703 7.45798 27.1528 10.1524 29.8472C12.8469 32.5417 16.1293 33.8889 19.9997 33.8889Z" fill="#A3A3A3"/>
</g>
</svg>