<svg width="24" height="24" viewBox="0 0 24 24" fill="none" xmlns="http://www.w3.org/2000/svg">
<g id="&#237;&#142;&#152;&#236;&#157;&#180;&#236;&#167;&#128; &#236;&#149;&#132;&#236;&#157;&#180;&#236;&#189;&#152;">
<path id="Vector" d="M12 11C14.2091 11 16 9.20914 16 7C16 4.79086 14.2091 3 12 3C9.79086 3 8 4.79086 8 7C8 9.20914 9.79086 11 12 11Z" fill="#FDFDFD" stroke="#6F63E0" stroke-width="1.5"/>
<g id="Vector_2">
<path d="M3 21V19C3 16.7909 4.79086 15 7 15H17C19.2091 15 21 16.7909 21 19V21" fill="#FDFDFD"/>
<path d="M3 21V19C3 16.7909 4.79086 15 7 15H17C19.2091 15 21 16.7909 21 19V21" stroke="#6F63E0" stroke-width="1.5" stroke-linecap="round"/>
</g>
</g>
</svg>
