<svg width="22" height="20" viewBox="0 0 22 20" fill="none" xmlns="http://www.w3.org/2000/svg">
<g id="&#236;&#132;&#164;&#236;&#160;&#149; &#236;&#149;&#132;&#236;&#157;&#180;&#236;&#189;&#152;">
<path id="Vector" d="M3 12C4.10457 12 5 11.1046 5 10C5 8.89543 4.10457 8 3 8C1.89543 8 1 8.89543 1 10C1 11.1046 1.89543 12 3 12Z" fill="#FDFDFD" stroke="#101010" stroke-width="1.2"/>
<path id="Vector_2" d="M11 12C12.1046 12 13 11.1046 13 10C13 8.89543 12.1046 8 11 8C9.89543 8 9 8.89543 9 10C9 11.1046 9.89543 12 11 12Z" fill="#FDFDFD" stroke="#101010" stroke-width="1.2"/>
<path id="Vector_3" d="M19 12C20.1046 12 21 11.1046 21 10C21 8.89543 20.1046 8 19 8C17.8954 8 17 8.89543 17 10C17 11.1046 17.8954 12 19 12Z" fill="#FDFDFD" stroke="#101010" stroke-width="1.2"/>
</g>
</svg>
