<svg width="24" height="24" viewBox="0 0 24 24" fill="none" xmlns="http://www.w3.org/2000/svg">
<g id="&#237;&#133;&#140;&#235;&#167;&#136; &#236;&#149;&#132;&#236;&#157;&#180;&#236;&#189;&#152;">
<path id="Vector" d="M19.2 10V3.6C19.2 3.03995 19.2 2.75992 19.1019 2.54601C19.0156 2.35785 18.8779 2.20487 18.7086 2.10899C18.516 2 18.264 2 17.76 2H16M19.2 10H4.79981M19.2 10H21C21 11.6802 21 12.5202 20.7057 13.162C20.4469 13.7265 20.0338 14.1854 19.5258 14.473C18.9482 14.8 18.1921 14.8 16.6799 14.8H7.32005C5.80789 14.8 5.05181 14.8 4.47424 14.473C3.9662 14.1854 3.55315 13.7265 3.29429 13.162C3 12.5202 3 11.6802 3 10H4.79981M16 2H13M16 2V5M4.79981 10V3.6C4.79981 3.03995 4.79981 2.75992 4.89791 2.54601C4.9842 2.35785 5.12188 2.20487 5.29123 2.10899C5.48375 2 5.73578 2 6.23983 2H11.9999H13M13 2V7M14.2499 15V19.5C14.2499 20.8807 13.2425 22 11.9999 22C10.7572 22 9.74988 20.8807 9.74988 19.5V15" stroke="#101010" stroke-width="1.2" stroke-linecap="round" stroke-linejoin="round"/>
</g>
</svg>
