<svg xmlns="http://www.w3.org/2000/svg" width="16" height="19" viewBox="0 0 16 19" fill="none">
<path fill-rule="evenodd" clip-rule="evenodd" d="M10.6195 4.05055C10.7745 4.20005 11.0201 4.20005 11.1751 4.05055L11.3646 3.86765C11.5276 3.71035 11.5276 3.44925 11.3646 3.29195L8.27707 0.312373C8.12207 0.162803 7.87647 0.162803 7.72147 0.312373L4.63397 3.29195C4.47097 3.44925 4.47097 3.71035 4.63397 3.86765L4.82347 4.05055C4.97847 4.20005 5.22397 4.20005 5.37897 4.05055L7.44897 2.05285V11.4658C7.44897 11.6867 7.62807 11.8658 7.84897 11.8658H8.14257C8.36347 11.8658 8.54257 11.6867 8.54257 11.4658V2.04615L10.6195 4.05055Z" fill="#FDFDFD"/>
<path d="M7.44929 2.05266H7.64929V1.58176L7.31039 1.90876L7.44929 2.05266ZM8.54289 2.04596L8.68179 1.90205L8.34289 1.57506V2.04596H8.54289ZM11.0365 3.90636C10.959 3.98116 10.8362 3.98116 10.7587 3.90636L10.481 4.19425C10.7134 4.41855 11.0818 4.41855 11.3143 4.19425L11.0365 3.90636ZM11.226 3.72356L11.0365 3.90636L11.3143 4.19425L11.5038 4.01136L11.226 3.72356ZM11.226 3.43566C11.3075 3.51436 11.3075 3.64486 11.226 3.72356L11.5038 4.01136C11.7482 3.77546 11.7482 3.38375 11.5038 3.14786L11.226 3.43566ZM8.13849 0.456085L11.226 3.43566L11.5038 3.14786L8.41619 0.168255L8.13849 0.456085ZM7.86069 0.456085C7.93819 0.381305 8.06099 0.381305 8.13849 0.456085L8.41619 0.168255C8.18379 -0.056085 7.81539 -0.056085 7.58289 0.168255L7.86069 0.456085ZM4.77319 3.43566L7.86069 0.456085L7.58289 0.168255L4.49539 3.14786L4.77319 3.43566ZM4.77319 3.72356C4.69169 3.64486 4.69169 3.51436 4.77319 3.43566L4.49539 3.14786C4.25089 3.38375 4.25089 3.77546 4.49539 4.01136L4.77319 3.72356ZM4.96269 3.90636L4.77319 3.72356L4.49539 4.01136L4.68489 4.19425L4.96269 3.90636ZM5.24039 3.90636C5.16299 3.98116 5.04019 3.98116 4.96269 3.90636L4.68489 4.19425C4.91739 4.41855 5.28569 4.41855 5.51819 4.19425L5.24039 3.90636ZM7.31039 1.90876L5.24039 3.90636L5.51819 4.19425L7.58819 2.19656L7.31039 1.90876ZM7.64929 11.4656V2.05266H7.24929V11.4656H7.64929ZM7.84929 11.6656C7.73889 11.6656 7.64929 11.5761 7.64929 11.4656H7.24929C7.24929 11.797 7.51799 12.0656 7.84929 12.0656V11.6656ZM8.14289 11.6656H7.84929V12.0656H8.14289V11.6656ZM8.34289 11.4656C8.34289 11.5761 8.25339 11.6656 8.14289 11.6656V12.0656C8.47429 12.0656 8.74289 11.797 8.74289 11.4656H8.34289ZM8.34289 2.04596V11.4656H8.74289V2.04596H8.34289ZM10.7587 3.90636L8.68179 1.90205L8.40399 2.18986L10.481 4.19425L10.7587 3.90636Z" fill="#FDFDFD"/>
<path d="M13.3846 18.1967H2.6154C1.7 18.1967 1 17.5107 1 16.6136V7.11533C1 6.21823 1.7 5.53223 2.6154 5.53223H5.2305C5.4515 5.53223 5.6305 5.71133 5.6305 5.93223V6.18763C5.6305 6.40853 5.4515 6.58763 5.2305 6.58763H2.6154C2.2923 6.58763 2.0769 6.79873 2.0769 7.11533V16.6136C2.0769 16.9302 2.2923 17.1413 2.6154 17.1413H13.3846C13.7077 17.1413 13.9231 16.9302 13.9231 16.6136V7.11533C13.9231 6.79873 13.7077 6.58763 13.3846 6.58763H10.6611C10.4402 6.58763 10.2611 6.40853 10.2611 6.18763V5.93223C10.2611 5.71133 10.4402 5.53223 10.6611 5.53223H13.3846C14.3 5.53223 15 6.21823 15 7.11533V16.6136C15 17.5107 14.3 18.1967 13.3846 18.1967Z" fill="#FDFDFD" stroke="#FDFDFD" stroke-width="0.4"/>
</svg>